<mxfile host="app.diagrams.net" agent="Mozilla/5.0 (X11; Linux x86_64) AppleWebKit/537.36 (KHTML, like Gecko) Chrome/126.0.0.0 Safari/537.36" version="26.0.3">
  <diagram name="Page-1" id="Fyef3ccQy_AznJjpZTiM">
    <mxGraphModel dx="1376" dy="788" grid="1" gridSize="10" guides="1" tooltips="1" connect="1" arrows="1" fold="1" page="1" pageScale="1" pageWidth="850" pageHeight="1100" math="0" shadow="0">
      <root>
        <mxCell id="0" />
        <mxCell id="1" parent="0" />
        <mxCell id="13On3M7QxQngeugVpTnD-1" value="main.io" style="shape=umlLifeline;perimeter=lifelinePerimeter;whiteSpace=wrap;html=1;container=1;dropTarget=0;collapsible=0;recursiveResize=0;outlineConnect=0;portConstraint=eastwest;newEdgeStyle={&quot;curved&quot;:0,&quot;rounded&quot;:0};" vertex="1" parent="1">
          <mxGeometry x="110" y="130" width="100" height="610" as="geometry" />
        </mxCell>
        <mxCell id="13On3M7QxQngeugVpTnD-2" value="Vibration" style="shape=umlLifeline;perimeter=lifelinePerimeter;whiteSpace=wrap;html=1;container=1;dropTarget=0;collapsible=0;recursiveResize=0;outlineConnect=0;portConstraint=eastwest;newEdgeStyle={&quot;curved&quot;:0,&quot;rounded&quot;:0};" vertex="1" parent="1">
          <mxGeometry x="290" y="130" width="100" height="610" as="geometry" />
        </mxCell>
        <mxCell id="13On3M7QxQngeugVpTnD-3" value="Display" style="shape=umlLifeline;perimeter=lifelinePerimeter;whiteSpace=wrap;html=1;container=1;dropTarget=0;collapsible=0;recursiveResize=0;outlineConnect=0;portConstraint=eastwest;newEdgeStyle={&quot;curved&quot;:0,&quot;rounded&quot;:0};" vertex="1" parent="1">
          <mxGeometry x="460" y="130" width="100" height="600" as="geometry" />
        </mxCell>
        <mxCell id="13On3M7QxQngeugVpTnD-4" value="Fsr" style="shape=umlLifeline;perimeter=lifelinePerimeter;whiteSpace=wrap;html=1;container=1;dropTarget=0;collapsible=0;recursiveResize=0;outlineConnect=0;portConstraint=eastwest;newEdgeStyle={&quot;curved&quot;:0,&quot;rounded&quot;:0};" vertex="1" parent="1">
          <mxGeometry x="620" y="130" width="100" height="570" as="geometry" />
        </mxCell>
        <mxCell id="13On3M7QxQngeugVpTnD-5" value="Keypad" style="shape=umlLifeline;perimeter=lifelinePerimeter;whiteSpace=wrap;html=1;container=1;dropTarget=0;collapsible=0;recursiveResize=0;outlineConnect=0;portConstraint=eastwest;newEdgeStyle={&quot;curved&quot;:0,&quot;rounded&quot;:0};" vertex="1" parent="1">
          <mxGeometry x="790" y="130" width="100" height="580" as="geometry" />
        </mxCell>
        <mxCell id="13On3M7QxQngeugVpTnD-6" value="Setup" style="shape=umlFrame;whiteSpace=wrap;html=1;pointerEvents=0;" vertex="1" parent="1">
          <mxGeometry x="70" y="200" width="840" height="200" as="geometry" />
        </mxCell>
        <mxCell id="13On3M7QxQngeugVpTnD-7" value="" style="endArrow=classic;html=1;rounded=0;" edge="1" parent="1">
          <mxGeometry width="50" height="50" relative="1" as="geometry">
            <mxPoint x="159.5" y="240" as="sourcePoint" />
            <mxPoint x="340" y="240" as="targetPoint" />
          </mxGeometry>
        </mxCell>
        <mxCell id="13On3M7QxQngeugVpTnD-8" value="" style="endArrow=classic;html=1;rounded=0;" edge="1" parent="1" target="13On3M7QxQngeugVpTnD-3">
          <mxGeometry width="50" height="50" relative="1" as="geometry">
            <mxPoint x="160" y="270" as="sourcePoint" />
            <mxPoint x="340.5" y="270" as="targetPoint" />
          </mxGeometry>
        </mxCell>
        <mxCell id="13On3M7QxQngeugVpTnD-9" value="" style="endArrow=classic;html=1;rounded=0;" edge="1" parent="1" target="13On3M7QxQngeugVpTnD-4">
          <mxGeometry width="50" height="50" relative="1" as="geometry">
            <mxPoint x="160" y="299.5" as="sourcePoint" />
            <mxPoint x="510" y="299.5" as="targetPoint" />
          </mxGeometry>
        </mxCell>
        <mxCell id="13On3M7QxQngeugVpTnD-10" value="" style="endArrow=classic;html=1;rounded=0;" edge="1" parent="1" target="13On3M7QxQngeugVpTnD-5">
          <mxGeometry width="50" height="50" relative="1" as="geometry">
            <mxPoint x="160" y="330" as="sourcePoint" />
            <mxPoint x="670" y="330.5" as="targetPoint" />
          </mxGeometry>
        </mxCell>
        <mxCell id="13On3M7QxQngeugVpTnD-11" value="initVibrate()" style="text;html=1;align=center;verticalAlign=middle;whiteSpace=wrap;rounded=0;" vertex="1" parent="1">
          <mxGeometry x="220" y="210" width="60" height="30" as="geometry" />
        </mxCell>
        <mxCell id="13On3M7QxQngeugVpTnD-13" value="initDisplay()" style="text;html=1;align=center;verticalAlign=middle;whiteSpace=wrap;rounded=0;" vertex="1" parent="1">
          <mxGeometry x="370" y="240" width="60" height="30" as="geometry" />
        </mxCell>
        <mxCell id="13On3M7QxQngeugVpTnD-15" value="initFsr()" style="text;html=1;align=center;verticalAlign=middle;whiteSpace=wrap;rounded=0;" vertex="1" parent="1">
          <mxGeometry x="530" y="265" width="60" height="30" as="geometry" />
        </mxCell>
        <mxCell id="13On3M7QxQngeugVpTnD-18" value="InitKeypad()" style="text;html=1;align=center;verticalAlign=middle;whiteSpace=wrap;rounded=0;" vertex="1" parent="1">
          <mxGeometry x="710" y="295" width="60" height="30" as="geometry" />
        </mxCell>
        <mxCell id="13On3M7QxQngeugVpTnD-20" value="loop" style="shape=umlFrame;whiteSpace=wrap;html=1;pointerEvents=0;" vertex="1" parent="1">
          <mxGeometry x="70" y="430" width="840" height="200" as="geometry" />
        </mxCell>
        <mxCell id="13On3M7QxQngeugVpTnD-21" value="only main.io compile to the system" style="shape=note;whiteSpace=wrap;html=1;backgroundOutline=1;darkOpacity=0.05;" vertex="1" parent="1">
          <mxGeometry x="120" y="20" width="80" height="100" as="geometry" />
        </mxCell>
        <mxCell id="13On3M7QxQngeugVpTnD-22" value="" style="endArrow=classic;html=1;rounded=0;" edge="1" parent="1">
          <mxGeometry width="50" height="50" relative="1" as="geometry">
            <mxPoint x="159.75" y="480" as="sourcePoint" />
            <mxPoint x="340.25" y="480" as="targetPoint" />
          </mxGeometry>
        </mxCell>
        <mxCell id="13On3M7QxQngeugVpTnD-23" value="triggerVibration()" style="text;html=1;align=center;verticalAlign=middle;whiteSpace=wrap;rounded=0;" vertex="1" parent="1">
          <mxGeometry x="210.25" y="440" width="60" height="30" as="geometry" />
        </mxCell>
        <mxCell id="13On3M7QxQngeugVpTnD-25" value="" style="endArrow=classic;html=1;rounded=0;" edge="1" parent="1" target="13On3M7QxQngeugVpTnD-3">
          <mxGeometry width="50" height="50" relative="1" as="geometry">
            <mxPoint x="159.75" y="520" as="sourcePoint" />
            <mxPoint x="340.25" y="520" as="targetPoint" />
          </mxGeometry>
        </mxCell>
        <mxCell id="13On3M7QxQngeugVpTnD-26" value="displayAlarm()" style="text;html=1;align=center;verticalAlign=middle;whiteSpace=wrap;rounded=0;" vertex="1" parent="1">
          <mxGeometry x="370" y="490" width="60" height="30" as="geometry" />
        </mxCell>
        <mxCell id="13On3M7QxQngeugVpTnD-27" value="" style="endArrow=classic;html=1;rounded=0;" edge="1" parent="1" target="13On3M7QxQngeugVpTnD-4">
          <mxGeometry width="50" height="50" relative="1" as="geometry">
            <mxPoint x="160" y="560" as="sourcePoint" />
            <mxPoint x="510.25" y="560" as="targetPoint" />
          </mxGeometry>
        </mxCell>
        <mxCell id="13On3M7QxQngeugVpTnD-28" value="checkFsr()" style="text;html=1;align=center;verticalAlign=middle;whiteSpace=wrap;rounded=0;" vertex="1" parent="1">
          <mxGeometry x="550" y="530" width="60" height="30" as="geometry" />
        </mxCell>
        <mxCell id="13On3M7QxQngeugVpTnD-31" value="" style="endArrow=classic;html=1;rounded=0;" edge="1" parent="1">
          <mxGeometry width="50" height="50" relative="1" as="geometry">
            <mxPoint x="160" y="600" as="sourcePoint" />
            <mxPoint x="840" y="600" as="targetPoint" />
          </mxGeometry>
        </mxCell>
        <mxCell id="13On3M7QxQngeugVpTnD-32" value="getKeypadInput()" style="text;html=1;align=center;verticalAlign=middle;whiteSpace=wrap;rounded=0;" vertex="1" parent="1">
          <mxGeometry x="710" y="570" width="60" height="30" as="geometry" />
        </mxCell>
        <mxCell id="13On3M7QxQngeugVpTnD-34" value="in the loop check whether the input get correctly" style="shape=note;whiteSpace=wrap;html=1;backgroundOutline=1;darkOpacity=0.05;" vertex="1" parent="1">
          <mxGeometry x="60" y="690" width="190" height="100" as="geometry" />
        </mxCell>
      </root>
    </mxGraphModel>
  </diagram>
</mxfile>
